name p6_grf_mean_speed_1.0
datacolumns 13
datarows 40
range 0.0000000000 0.3900000000
endheader
time	grf_x_l_mean	grf_x_l_var	grf_y_l_mean	grf_y_l_var	grf_z_l_mean	grf_z_l_var	grf_x_r_mean	grf_x_r_var	grf_y_r_mean	grf_y_r_var	grf_z_r_mean	grf_z_r_var
0.0000000000	123.5735467793	1.0000000000	776.4129488286	1.0000000000	0.0000000000	0.0000000000	2.4877748604	1.0000000000	10.9771670334	1.0000000000	0.0000000000	0.0000000000
0.0100000000	131.7606588922	1.0000000000	760.7321300829	1.0000000000	0.0000000000	0.0000000000	11.8391220839	1.0000000000	48.1996968977	1.0000000000	0.0000000000	0.0000000000
0.0200000000	140.0334379863	1.0000000000	737.2032070890	1.0000000000	0.0000000000	0.0000000000	24.3081555606	1.0000000000	112.4851646601	1.0000000000	0.0000000000	0.0000000000
0.0300000000	147.2285924387	1.0000000000	703.1205136675	1.0000000000	0.0000000000	0.0000000000	27.8286507805	1.0000000000	203.2997811813	1.0000000000	0.0000000000	0.0000000000
0.0400000000	150.7754579336	1.0000000000	655.2816925513	1.0000000000	0.0000000000	0.0000000000	13.0821320458	1.0000000000	312.6840737082	1.0000000000	0.0000000000	0.0000000000
0.0500000000	149.0275441527	1.0000000000	591.5186266251	1.0000000000	0.0000000000	0.0000000000	-13.3598043443	1.0000000000	427.7912755826	1.0000000000	0.0000000000	0.0000000000
0.0600000000	140.1587591191	1.0000000000	512.1453072049	1.0000000000	0.0000000000	0.0000000000	-42.4064453895	1.0000000000	534.5220666177	1.0000000000	0.0000000000	0.0000000000
0.0700000000	122.0722423998	1.0000000000	420.9776616733	1.0000000000	0.0000000000	0.0000000000	-70.5010605574	1.0000000000	623.8257588599	1.0000000000	0.0000000000	0.0000000000
0.0800000000	97.1676278561	1.0000000000	326.1570491111	1.0000000000	0.0000000000	0.0000000000	-93.1930134337	1.0000000000	695.1608674053	1.0000000000	0.0000000000	0.0000000000
0.0900000000	69.1406585960	1.0000000000	237.4794106844	1.0000000000	0.0000000000	0.0000000000	-109.2319907509	1.0000000000	752.2506720728	1.0000000000	0.0000000000	0.0000000000
0.1000000000	42.2526704179	1.0000000000	162.4162270996	1.0000000000	0.0000000000	0.0000000000	-119.3732864910	1.0000000000	798.6391443114	1.0000000000	0.0000000000	0.0000000000
0.1100000000	20.9773947785	1.0000000000	105.4809424366	1.0000000000	0.0000000000	0.0000000000	-123.6349925278	1.0000000000	836.2132866127	1.0000000000	0.0000000000	0.0000000000
0.1200000000	6.3337814582	1.0000000000	66.3868091103	1.0000000000	0.0000000000	0.0000000000	-123.7361856625	1.0000000000	864.8074601175	1.0000000000	0.0000000000	0.0000000000
0.1300000000	-1.5106115036	1.0000000000	40.2697605103	1.0000000000	0.0000000000	0.0000000000	-120.3189268090	1.0000000000	884.2017914716	1.0000000000	0.0000000000	0.0000000000
0.1400000000	-4.0679437575	1.0000000000	22.8768391996	1.0000000000	0.0000000000	0.0000000000	-113.9413446764	1.0000000000	895.6255171220	1.0000000000	0.0000000000	0.0000000000
0.1500000000	-4.0406707223	1.0000000000	11.7666756522	1.0000000000	0.0000000000	0.0000000000	-106.4839760145	1.0000000000	900.1643185638	1.0000000000	0.0000000000	0.0000000000
0.1600000000	-2.8074774489	1.0000000000	4.8333764850	1.0000000000	0.0000000000	0.0000000000	-98.2861155756	1.0000000000	897.2757292042	1.0000000000	0.0000000000	0.0000000000
0.1700000000	-1.5759523648	1.0000000000	0.9698063395	1.0000000000	0.0000000000	0.0000000000	-90.0303445318	1.0000000000	887.2096384459	1.0000000000	0.0000000000	0.0000000000
0.1800000000	0.0000000000	1.0000000000	0.0000000000	1.0000000000	0.0000000000	0.0000000000	-82.5200621924	1.0000000000	872.1910059299	1.0000000000	0.0000000000	0.0000000000
0.1900000000	0.0000000000	1.0000000000	0.0000000000	1.0000000000	0.0000000000	0.0000000000	-75.3587958322	1.0000000000	854.3358122449	1.0000000000	0.0000000000	0.0000000000
0.2000000000	0.0000000000	1.0000000000	0.0000000000	1.0000000000	0.0000000000	0.0000000000	-68.8322822720	1.0000000000	834.7468821473	1.0000000000	0.0000000000	0.0000000000
0.2100000000	0.0000000000	1.0000000000	0.0000000000	1.0000000000	0.0000000000	0.0000000000	-62.8209351919	1.0000000000	814.4934279669	1.0000000000	0.0000000000	0.0000000000
0.2200000000	-0.4231884800	1.0000000000	0.0158074250	1.0000000000	0.0000000000	0.0000000000	-57.1628383962	1.0000000000	795.4941675500	1.0000000000	0.0000000000	0.0000000000
0.2300000000	-0.4967996412	1.0000000000	0.1539485496	1.0000000000	0.0000000000	0.0000000000	-52.0153228869	1.0000000000	779.1984813029	1.0000000000	0.0000000000	0.0000000000
0.2400000000	-0.5183337111	1.0000000000	0.2201491576	1.0000000000	0.0000000000	0.0000000000	-46.9994968946	1.0000000000	765.7938039695	1.0000000000	0.0000000000	0.0000000000
0.2500000000	-0.5744737128	1.0000000000	0.2045941388	1.0000000000	0.0000000000	0.0000000000	-41.9752312240	1.0000000000	755.5300119066	1.0000000000	0.0000000000	0.0000000000
0.2600000000	-0.6514884018	1.0000000000	0.1709508357	1.0000000000	0.0000000000	0.0000000000	-36.9947984420	1.0000000000	748.8789672271	1.0000000000	0.0000000000	0.0000000000
0.2700000000	-0.5509037666	1.0000000000	0.1859110326	1.0000000000	0.0000000000	0.0000000000	-31.8857677465	1.0000000000	745.3721121657	1.0000000000	0.0000000000	0.0000000000
0.2800000000	-0.5021171842	1.0000000000	0.1959715497	1.0000000000	0.0000000000	0.0000000000	-26.6513743061	1.0000000000	743.6711652140	1.0000000000	0.0000000000	0.0000000000
0.2900000000	-0.5044764323	1.0000000000	0.1832911961	1.0000000000	0.0000000000	0.0000000000	-21.2344222307	1.0000000000	743.3445486033	1.0000000000	0.0000000000	0.0000000000
0.3000000000	-0.4687971497	1.0000000000	0.2130806571	1.0000000000	0.0000000000	0.0000000000	-15.6585563245	1.0000000000	744.4843693600	1.0000000000	0.0000000000	0.0000000000
0.3100000000	-0.4780922447	1.0000000000	0.2619198316	1.0000000000	0.0000000000	0.0000000000	-9.9551989872	1.0000000000	746.3986562482	1.0000000000	0.0000000000	0.0000000000
0.3200000000	-0.4688703416	1.0000000000	0.2819430524	1.0000000000	0.0000000000	0.0000000000	-4.0950891704	1.0000000000	748.4426445313	1.0000000000	0.0000000000	0.0000000000
0.3300000000	-0.4870414093	1.0000000000	0.3177712365	1.0000000000	0.0000000000	0.0000000000	1.8324290974	1.0000000000	750.5325157905	1.0000000000	0.0000000000	0.0000000000
0.3400000000	-0.5000612959	1.0000000000	0.3309571653	1.0000000000	0.0000000000	0.0000000000	7.7715397256	1.0000000000	752.8134308408	1.0000000000	0.0000000000	0.0000000000
0.3500000000	-0.4952967414	1.0000000000	0.3018731504	1.0000000000	0.0000000000	0.0000000000	13.8165295876	1.0000000000	755.0045101534	1.0000000000	0.0000000000	0.0000000000
0.3600000000	-0.5467179129	1.0000000000	0.2748434262	1.0000000000	0.0000000000	0.0000000000	20.0325030869	1.0000000000	756.7279353569	1.0000000000	0.0000000000	0.0000000000
0.3700000000	-0.5736070636	1.0000000000	0.2664277174	1.0000000000	0.0000000000	0.0000000000	26.5017219276	1.0000000000	758.2260370684	1.0000000000	0.0000000000	0.0000000000
0.3800000000	-0.5239596971	1.0000000000	0.2946824939	1.0000000000	0.0000000000	0.0000000000	33.2804290459	1.0000000000	759.7153909005	1.0000000000	0.0000000000	0.0000000000
0.3900000000	-0.4374879216	1.0000000000	0.3601636720	1.0000000000	0.0000000000	0.0000000000	40.4144799080	1.0000000000	761.1152758001	1.0000000000	0.0000000000	0.0000000000
